<svg width="520" height="922" viewBox="0 0 520 922" fill="none" xmlns="http://www.w3.org/2000/svg">
<g clip-path="url(#clip0_85_390)">
<rect width="520" height="922" fill="black"/>
<circle cx="243.667" cy="900.575" r="4.02222" fill="#999999" stroke="#999999" stroke-width="1.28889"/>
<circle cx="260" cy="900.575" r="4.02222" stroke="#999999" stroke-width="1.28889"/>
<circle cx="276.334" cy="900.575" r="4.02222" stroke="#999999" stroke-width="1.28889"/>
<path d="M31.9375 58H28.6328L37.9492 32.5469H41.2891L50.6055 58H47.2656L44.7344 50.8281H34.5039L31.9375 58ZM35.4531 48.0508H43.75L39.707 36.6602H39.4961L35.4531 48.0508ZM54.0508 58V32.5469H62.6992C68.6758 32.5469 71.3828 35.8516 71.3828 40.3867C71.3828 43.7441 69.8711 46.3984 66.6367 47.5234L72.3672 58H68.6758L63.3672 48.0859L62.7344 48.1211H57.2148V58H54.0508ZM57.2148 45.2383H62.5938C66.6367 45.2383 68.2539 43.4102 68.2539 40.3867C68.2539 37.3281 66.6367 35.3594 62.5586 35.3594H57.2148V45.2383ZM108.438 32.6523V35.6758C108.402 39.4727 108.438 43.7617 107.137 50.125L104.43 49.8086C105.045 46.9785 105.361 44.5 105.555 42.2852L86.4297 43.4453L85.9727 41.0195L105.66 40.2109C105.73 38.5586 105.73 37.0645 105.73 35.6758V34.9375H86.8867V32.6523H108.438ZM111.918 54.2383V56.5938H83.4414V54.2383H94.6211V46.1523H97.3281V54.2383H111.918ZM140.324 29.5938V60.918H137.547V29.5938H140.324ZM131.465 32.582V34.9023H119.371V50.7578C125.453 50.7578 129.461 50.5645 134.137 49.7383L134.418 52.0586C129.566 52.9375 125.453 53.1133 119.125 53.1484H116.594V32.582H131.465ZM183.18 48.5078V50.8281H170.277V60.918H167.57V50.8281H154.703V48.5078H183.18ZM170.312 35.7812C170.312 39.6836 175.762 43.0938 181.352 43.8672L180.332 46.082C175.498 45.3438 170.945 42.918 168.977 39.5078C166.973 42.9531 162.35 45.3438 157.516 46.082L156.496 43.8672C162.051 43.0938 167.57 39.7188 167.57 35.7812V35.7461H157.48V33.4961H167.57V29.5938H170.277V33.4961H180.438V35.7461H170.312V35.7812ZM196.469 37.082C196.469 41.2305 199.773 44.8867 204.414 46.3281L203.043 48.543C199.422 47.3652 196.574 44.8867 195.168 41.6875C193.814 45.1152 190.984 47.7695 187.293 49.0703L185.922 46.9258C190.527 45.3789 193.762 41.4766 193.762 37.082V36.0625H186.695V33.8125H193.762V29.8047H196.539V33.8125H203.535V36.0625H196.469V37.082ZM211.727 29.6289V52.9727H208.949V41.5469H202.445V39.2617H208.949V29.6289H211.727ZM212.605 57.8594V60.1797H191.652V50.8633H194.43V57.8594H212.605Z" fill="white"/>
<path d="M47.8516 88.8906V90.1797H28.9141V88.8906H37.5625V83.8047H30.6719V82.5859H34.0469V75.4844H30.6484V74.2422H45.9531V75.4844H42.5547V82.5859H45.9297V83.8047H39.0156V88.8906H47.8516ZM35.5234 82.5859H41.1016V75.4844H35.5234V82.5859ZM60.1797 73.3047V76.7266H65.2188V72.1562H66.6719V82.8438H65.2188V77.9688H60.1797V81.6484H50.6641V73.3047H60.1797ZM52.1172 74.5234V80.4297H58.7266V74.5234H52.1172ZM66.6719 83.9688V88.7031H54.9062V91.3047H67.5391V92.5234H53.4531V87.5547H65.2188V85.1641H53.3828V83.9688H66.6719Z" fill="#999999" fill-opacity="0.7"/>
<path d="M490 474.361L503 461.181L490 448" stroke="#999999" stroke-width="2.2" stroke-linecap="round" stroke-linejoin="round"/>
<path d="M469.657 469.771V466.705C469.657 465.925 470.293 465.291 471.081 465.286H473.967C474.759 465.286 475.401 465.921 475.401 466.705V469.781C475.4 470.443 475.934 470.984 476.603 471H478.527C480.445 471 482 469.461 482 467.562V458.838C481.99 458.091 481.635 457.389 481.038 456.933L474.458 451.685C473.305 450.772 471.666 450.772 470.513 451.685L463.962 456.943C463.362 457.397 463.007 458.1 463 458.847V467.562C463 469.461 464.555 471 466.473 471H468.397C469.082 471 469.638 470.45 469.638 469.771" stroke="#999999" stroke-width="1.5" stroke-linecap="round" stroke-linejoin="round"/>
</g>
<defs>
<clipPath id="clip0_85_390">
<rect width="520" height="922" fill="white"/>
</clipPath>
</defs>
</svg>
