<svg width="39" height="37" viewBox="0 0 39 37" fill="none" xmlns="http://www.w3.org/2000/svg">
<rect width="39" height="37" rx="7" fill="#225332"/>
<path d="M20.0199 26.53C17.6899 26.53 15.3599 26.16 13.1499 25.42C12.3099 25.13 11.6699 24.54 11.3899 23.77C11.0999 23 11.1999 22.15 11.6599 21.39L12.8099 19.48C13.0499 19.08 13.2699 18.28 13.2699 17.81V14.92C13.2699 11.2 16.2999 8.17001 20.0199 8.17001C23.7399 8.17001 26.7699 11.2 26.7699 14.92V17.81C26.7699 18.27 26.9899 19.08 27.2299 19.49L28.3699 21.39C28.7999 22.11 28.8799 22.98 28.5899 23.77C28.2999 24.56 27.6699 25.16 26.8799 25.42C24.6799 26.16 22.3499 26.53 20.0199 26.53ZM20.0199 9.67001C17.1299 9.67001 14.7699 12.02 14.7699 14.92V17.81C14.7699 18.54 14.4699 19.62 14.0999 20.25L12.9499 22.16C12.7299 22.53 12.6699 22.92 12.7999 23.25C12.9199 23.59 13.2199 23.85 13.6299 23.99C17.8099 25.39 22.2399 25.39 26.4199 23.99C26.7799 23.87 27.0599 23.6 27.1899 23.24C27.3199 22.88 27.2899 22.49 27.0899 22.16L25.9399 20.25C25.5599 19.6 25.2699 18.53 25.2699 17.8V14.92C25.2699 12.02 22.9199 9.67001 20.0199 9.67001Z" fill="white"/>
<path d="M21.8801 9.93999C21.8101 9.93999 21.7401 9.92999 21.6701 9.90999C21.3801 9.82999 21.1001 9.76999 20.8301 9.72999C19.9801 9.61999 19.1601 9.67999 18.3901 9.90999C18.1101 9.99999 17.8101 9.90999 17.6201 9.69999C17.4301 9.48999 17.3701 9.18999 17.4801 8.91999C17.8901 7.86999 18.8901 7.17999 20.0301 7.17999C21.1701 7.17999 22.1701 7.85999 22.5801 8.91999C22.6801 9.18999 22.6301 9.48999 22.4401 9.69999C22.2901 9.85999 22.0801 9.93999 21.8801 9.93999Z" fill="white"/>
<path d="M20.02 28.81C19.03 28.81 18.07 28.41 17.37 27.71C16.67 27.01 16.27 26.05 16.27 25.06H17.77C17.77 25.65 18.01 26.23 18.43 26.65C18.85 27.07 19.43 27.31 20.02 27.31C21.26 27.31 22.27 26.3 22.27 25.06H23.77C23.77 27.13 22.09 28.81 20.02 28.81Z" fill="white"/>
</svg>
