<?xml version="1.0" encoding="UTF-8"?>
<!DOCTYPE svg PUBLIC "-//W3C//DTD SVG 1.1//EN" "http://www.w3.org/Graphics/SVG/1.1/DTD/svg11.dtd">
<svg xmlns="http://www.w3.org/2000/svg" version="1.1" width="110px" height="125px" style="shape-rendering:geometricPrecision; text-rendering:geometricPrecision; image-rendering:optimizeQuality; fill-rule:evenodd; clip-rule:evenodd" xmlns:xlink="http://www.w3.org/1999/xlink">
<g><path style="opacity:0.984" fill="#fefefe" d="M -0.5,-0.5 C 36.1667,-0.5 72.8333,-0.5 109.5,-0.5C 109.5,41.1667 109.5,82.8333 109.5,124.5C 72.8333,124.5 36.1667,124.5 -0.5,124.5C -0.5,82.8333 -0.5,41.1667 -0.5,-0.5 Z"/></g>
<g><path style="opacity:1" fill="#f0b572" d="M 29.5,41.5 C 44.1768,45.1765 52.5101,54.5098 54.5,69.5C 53.1667,69.5 51.8333,69.5 50.5,69.5C 48.8094,61.6294 44.8094,55.1294 38.5,50C 33.4542,47.673 28.4542,45.5063 23.5,43.5C 25.1417,41.9192 27.1417,41.2525 29.5,41.5 Z"/></g>
<g><path style="opacity:1" fill="#e47276" d="M 29.5,41.5 C 34.4327,40.3988 39.4327,40.7321 44.5,42.5C 51.3089,48.1119 56.1423,55.1119 59,63.5C 59.4955,65.4727 59.6621,67.4727 59.5,69.5C 57.8333,69.5 56.1667,69.5 54.5,69.5C 52.5101,54.5098 44.1768,45.1765 29.5,41.5 Z"/></g>
<g><path style="opacity:1" fill="#bbd6fd" d="M 44.5,42.5 C 55.2611,44.2189 65.9278,46.3855 76.5,49C 78,50.5 79.5,52 81,53.5C 81.4994,58.8229 81.666,64.1563 81.5,69.5C 74.1667,69.5 66.8333,69.5 59.5,69.5C 59.6621,67.4727 59.4955,65.4727 59,63.5C 56.1423,55.1119 51.3089,48.1119 44.5,42.5 Z"/></g>
<g><path style="opacity:1" fill="#efe18d" d="M 23.5,43.5 C 28.4542,45.5063 33.4542,47.673 38.5,50C 44.8094,55.1294 48.8094,61.6294 50.5,69.5C 48.8333,69.5 47.1667,69.5 45.5,69.5C 42.6791,56.7407 34.6791,50.074 21.5,49.5C 21.2594,47.1016 21.9261,45.1016 23.5,43.5 Z"/></g>
<g><path style="opacity:1" fill="#85e8eb" d="M 21.5,49.5 C 34.6791,50.074 42.6791,56.7407 45.5,69.5C 43.8333,69.5 42.1667,69.5 40.5,69.5C 38.0376,59.7134 31.7042,54.7134 21.5,54.5C 21.5,52.8333 21.5,51.1667 21.5,49.5 Z"/></g>
<g><path style="opacity:1" fill="#86c27a" d="M 21.5,54.5 C 31.7042,54.7134 38.0376,59.7134 40.5,69.5C 38.8333,69.5 37.1667,69.5 35.5,69.5C 33.3383,62.7456 28.6716,59.4123 21.5,59.5C 21.5,57.8333 21.5,56.1667 21.5,54.5 Z"/></g>
<g><path style="opacity:1" fill="#b9d6fd" d="M 21.5,59.5 C 28.6716,59.4123 33.3383,62.7456 35.5,69.5C 30.8333,69.5 26.1667,69.5 21.5,69.5C 21.5,66.1667 21.5,62.8333 21.5,59.5 Z"/></g>
<g><path style="opacity:1" fill="#599dfd" d="M 21.5,69.5 C 26.1667,69.5 30.8333,69.5 35.5,69.5C 37.1667,69.5 38.8333,69.5 40.5,69.5C 42.1667,69.5 43.8333,69.5 45.5,69.5C 47.1667,69.5 48.8333,69.5 50.5,69.5C 51.8333,69.5 53.1667,69.5 54.5,69.5C 56.1667,69.5 57.8333,69.5 59.5,69.5C 66.8333,69.5 74.1667,69.5 81.5,69.5C 83.8568,69.3367 86.1902,69.5034 88.5,70C 89.8333,71.6667 89.8333,73.3333 88.5,75C 86.1902,75.4966 83.8568,75.6633 81.5,75.5C 74.1667,75.5 66.8333,75.5 59.5,75.5C 57.8333,75.5 56.1667,75.5 54.5,75.5C 53.1667,75.5 51.8333,75.5 50.5,75.5C 48.8333,75.5 47.1667,75.5 45.5,75.5C 43.8333,75.5 42.1667,75.5 40.5,75.5C 38.8333,75.5 37.1667,75.5 35.5,75.5C 30.8333,75.5 26.1667,75.5 21.5,75.5C 19.1432,75.6633 16.8098,75.4966 14.5,75C 13.1667,73.3333 13.1667,71.6667 14.5,70C 16.8098,69.5034 19.1432,69.3367 21.5,69.5 Z"/></g>
<g><path style="opacity:1" fill="#b7d5fc" d="M 21.5,75.5 C 26.1667,75.5 30.8333,75.5 35.5,75.5C 33.6051,82.4722 28.9384,86.1389 21.5,86.5C 21.5,82.8333 21.5,79.1667 21.5,75.5 Z"/></g>
<g><path style="opacity:1" fill="#9fccb9" d="M 35.5,75.5 C 37.1667,75.5 38.8333,75.5 40.5,75.5C 38.0376,85.2866 31.7042,90.2866 21.5,90.5C 21.5,89.1667 21.5,87.8333 21.5,86.5C 28.9384,86.1389 33.6051,82.4722 35.5,75.5 Z"/></g>
<g><path style="opacity:1" fill="#9ee0f5" d="M 40.5,75.5 C 42.1667,75.5 43.8333,75.5 45.5,75.5C 42.6264,88.2756 34.6264,94.9422 21.5,95.5C 21.5,93.8333 21.5,92.1667 21.5,90.5C 31.7042,90.2866 38.0376,85.2866 40.5,75.5 Z"/></g>
<g><path style="opacity:1" fill="#d4dcc7" d="M 45.5,75.5 C 47.1667,75.5 48.8333,75.5 50.5,75.5C 46.8047,90.1974 37.4714,98.5308 22.5,100.5C 21.5489,99.0813 21.2155,97.4147 21.5,95.5C 34.6264,94.9422 42.6264,88.2756 45.5,75.5 Z"/></g>
<g><path style="opacity:1" fill="#d5c7b9" d="M 50.5,75.5 C 51.8333,75.5 53.1667,75.5 54.5,75.5C 52.3217,90.0095 44.3217,99.6762 30.5,104.5C 27.4605,103.722 24.7938,102.388 22.5,100.5C 37.4714,98.5308 46.8047,90.1974 50.5,75.5 Z"/></g>
<g><path style="opacity:1" fill="#cfa4bb" d="M 54.5,75.5 C 56.1667,75.5 57.8333,75.5 59.5,75.5C 58.2761,86.694 53.2761,95.694 44.5,102.5C 39.9338,103.807 35.2671,104.474 30.5,104.5C 44.3217,99.6762 52.3217,90.0095 54.5,75.5 Z"/></g>
<g><path style="opacity:1" fill="#bad6fe" d="M 59.5,75.5 C 66.8333,75.5 74.1667,75.5 81.5,75.5C 81.6659,80.5111 81.4993,85.5111 81,90.5C 79.0728,95.0594 75.5728,97.5594 70.5,98C 61.7578,99.1823 53.0912,100.682 44.5,102.5C 53.2761,95.694 58.2761,86.694 59.5,75.5 Z"/></g>
</svg>
