<svg width="39" height="37" viewBox="0 0 39 37" fill="none" xmlns="http://www.w3.org/2000/svg">
<rect width="39" height="37" rx="7" fill="#06277D"/>
<path d="M26 16.75C25.59 16.75 25.25 16.41 25.25 16V14C25.25 10.85 24.36 8.75 20 8.75C15.64 8.75 14.75 10.85 14.75 14V16C14.75 16.41 14.41 16.75 14 16.75C13.59 16.75 13.25 16.41 13.25 16V14C13.25 11.1 13.95 7.25 20 7.25C26.05 7.25 26.75 11.1 26.75 14V16C26.75 16.41 26.41 16.75 26 16.75Z" fill="#FCFEFF"/>
<path d="M25 28.75H15C10.59 28.75 9.25 27.41 9.25 23V21C9.25 16.59 10.59 15.25 15 15.25H25C29.41 15.25 30.75 16.59 30.75 21V23C30.75 27.41 29.41 28.75 25 28.75ZM15 16.75C11.42 16.75 10.75 17.43 10.75 21V23C10.75 26.57 11.42 27.25 15 27.25H25C28.58 27.25 29.25 26.57 29.25 23V21C29.25 17.43 28.58 16.75 25 16.75H15Z" fill="#FCFEFF"/>
<path d="M16 23C15.87 23 15.74 22.97 15.62 22.92C15.49 22.87 15.39 22.8 15.29 22.71C15.11 22.52 15 22.27 15 22C15 21.87 15.03 21.74 15.08 21.62C15.13 21.49 15.2 21.39 15.29 21.29C15.39 21.2 15.49 21.13 15.62 21.08C15.98 20.92 16.43 21.01 16.71 21.29C16.8 21.39 16.87 21.5 16.92 21.62C16.97 21.74 17 21.87 17 22C17 22.26 16.89 22.52 16.71 22.71C16.52 22.89 16.26 23 16 23Z" fill="#FCFEFF"/>
<path d="M20 23C19.74 23 19.48 22.89 19.29 22.71C19.11 22.52 19 22.27 19 22C19 21.87 19.02 21.74 19.08 21.62C19.13 21.5 19.2 21.39 19.29 21.29C19.52 21.06 19.87 20.95 20.19 21.02C20.26 21.03 20.32 21.05 20.38 21.08C20.44 21.1 20.5 21.13 20.56 21.17C20.61 21.2 20.66 21.25 20.71 21.29C20.8 21.39 20.87 21.5 20.92 21.62C20.97 21.74 21 21.87 21 22C21 22.27 20.89 22.52 20.71 22.71C20.66 22.75 20.61 22.79 20.56 22.83C20.5 22.87 20.44 22.9 20.38 22.92C20.32 22.95 20.26 22.97 20.19 22.98C20.13 22.99 20.06 23 20 23Z" fill="#FCFEFF"/>
<path d="M24 23C23.73 23 23.48 22.89 23.29 22.71C23.2 22.61 23.13 22.5 23.08 22.38C23.03 22.26 23 22.13 23 22C23 21.74 23.11 21.48 23.29 21.29C23.34 21.25 23.39 21.21 23.44 21.17C23.5 21.13 23.56 21.1 23.62 21.08C23.68 21.05 23.74 21.03 23.8 21.02C24.13 20.95 24.47 21.06 24.71 21.29C24.89 21.48 25 21.73 25 22C25 22.13 24.97 22.26 24.92 22.38C24.87 22.51 24.8 22.61 24.71 22.71C24.52 22.89 24.26 23 24 23Z" fill="#FCFEFF"/>
</svg>
