<svg width="38" height="37" viewBox="0 0 38 37" fill="none" xmlns="http://www.w3.org/2000/svg">
<rect width="37.8437" height="37" rx="7" fill="#FF5569"/>
<path d="M25.3166 19.59C25.1613 19.59 25.0061 19.54 24.8702 19.43C20.9597 16.32 15.9042 16.32 11.9936 19.43C11.6734 19.68 11.2174 19.62 10.9748 19.3C10.7322 18.97 10.7904 18.5 11.1009 18.25C15.5548 14.7 21.309 14.7 25.7532 18.25C26.0734 18.5 26.1317 18.97 25.8794 19.3C25.7532 19.49 25.5397 19.59 25.3166 19.59Z" fill="white"/>
<path d="M28.1403 16.11C27.9851 16.11 27.8298 16.06 27.694 15.95C22.0659 11.47 14.798 11.47 9.17969 15.95C8.85947 16.2 8.40341 16.14 8.16082 15.82C7.91823 15.49 7.97644 15.02 8.28695 14.77C14.4487 9.86002 22.4153 9.86002 28.5867 14.77C28.9069 15.02 28.9651 15.49 28.7128 15.82C28.577 16.01 28.3538 16.11 28.1403 16.11Z" fill="white"/>
<path d="M23.4923 23.24C23.3371 23.24 23.1818 23.19 23.046 23.08C20.2514 20.85 16.6319 20.85 13.8276 23.08C13.5074 23.33 13.0514 23.27 12.8088 22.95C12.5662 22.62 12.6244 22.15 12.9349 21.9C16.2729 19.24 20.591 19.24 23.929 21.9C24.2492 22.15 24.3074 22.62 24.0551 22.95C23.9193 23.14 23.7058 23.24 23.4923 23.24Z" fill="white"/>
<path d="M20.9598 26.9C20.8045 26.9 20.6492 26.85 20.5134 26.74C19.2519 25.73 17.612 25.73 16.3506 26.74C16.0304 26.99 15.5743 26.93 15.3317 26.61C15.0891 26.28 15.1473 25.81 15.4579 25.56C17.2627 24.12 19.5916 24.12 21.3964 25.56C21.7166 25.81 21.7748 26.28 21.5225 26.61C21.3964 26.79 21.1829 26.9 20.9598 26.9Z" fill="white"/>
</svg>
